<svg xmlns="http://www.w3.org/2000/svg" width="21.307" height="18.372" viewBox="0 0 21.307 18.372">
  <g id="Communication" transform="translate(-4.077 -6.61)">
    <path id="Path_4" data-name="Path 4" d="M18.88,12.652a7.559,7.559,0,0,0-5.094,2.058,6.049,6.049,0,0,0-1.879,5.124c-.773-.1-1.477-.2-2.185-.261a1.357,1.357,0,0,0-.742.126c-.688.388-1.347.826-2.128,1.314.143-.648.236-1.216.4-1.762a.67.67,0,0,0-.3-.886A6.026,6.026,0,0,1,4.321,11.6,6.7,6.7,0,0,1,9.028,7,7.891,7.891,0,0,1,17.65,9.529,5.905,5.905,0,0,1,18.88,12.652Zm-9.1-.8a.911.911,0,0,0-.877-.912.886.886,0,0,0-.922.856.875.875,0,0,0,.867.908A.9.9,0,0,0,9.777,11.847Zm4.749-.912a.913.913,0,0,0-.892.9.89.89,0,0,0,.915.87.885.885,0,1,0-.024-1.769Z" transform="translate(0 0)" fill="#3841c0"/>
    <path id="Path_5" data-name="Path 5" d="M34.616,33.864A6.717,6.717,0,0,0,32.8,33.1a10.136,10.136,0,0,0-1.887.353A6.306,6.306,0,0,1,25.8,31.787a5.187,5.187,0,0,1,.818-8.46,6.88,6.88,0,0,1,8.9,1.325,5.053,5.053,0,0,1-.584,7.048c-.61.541-.829.986-.438,1.7A2.024,2.024,0,0,1,34.616,33.864Zm-7.129-6.9a.737.737,0,1,0,.005-1.474.737.737,0,1,0-.005,1.474Zm4.6-1.472a.737.737,0,0,0-.731.7.727.727,0,1,0,.731-.7Z" transform="translate(-11.292 -8.882)" fill="#3841c0"/>
  </g>
</svg>
